<?xml version="1.0" standalone="no"?>
<!DOCTYPE svg PUBLIC "-//W3C//DTD SVG 20010904//EN"
 "http://www.w3.org/TR/2001/REC-SVG-20010904/DTD/svg10.dtd">
<svg version="1.0" xmlns="http://www.w3.org/2000/svg"
 width="200.000000pt" height="200.000000pt" viewBox="0 0 200.000000 200.000000"
 preserveAspectRatio="xMidYMid meet">

<rect width="100%" height="100%" fill="white"/>
<g transform="translate(0.000000,200.000000) scale(0.100000,-0.100000)" stroke="none">
<path fill="#EB6440" d="M0 1000 l0 -1000 1000 0 1000 0 0 1000 0 1000 -1000 0 -1000 0 0
-1000z m1215 900 c44 -10 95 -25 113 -33 28 -12 31 -15 18 -26 -15 -13 -40
-73 -50 -123 -6 -27 -7 -27 -103 -30 -87 -3 -98 -5 -101 -22 -7 -34 25 -46
124 -46 85 0 93 -2 99 -21 11 -35 77 -101 120 -120 52 -24 138 -24 190 0 22
10 56 34 75 54 l36 37 44 -67 c58 -88 107 -212 132 -332 16 -77 19 -119 15
-211 -7 -146 -33 -247 -98 -377 -50 -101 -50 -102 -70 -82 -18 18 -36 19 -393
19 -327 0 -377 -2 -390 -16 -9 -8 -16 -18 -16 -22 1 -30 20 -32 404 -34 l389
-3 -70 -75 c-39 -41 -91 -90 -116 -108 -43 -30 -46 -31 -52 -13 -11 37 -81 89
-127 96 -117 18 -218 -94 -189 -209 5 -22 9 -41 8 -43 -13 -12 -172 -24 -257
-20 -132 7 -240 35 -355 92 -351 173 -560 550 -515 933 23 202 108 386 247
532 122 128 243 205 403 254 159 49 322 54 485 16z m-1015 -87 c-17 -12 -24
-12 -36 -2 -13 10 -12 14 2 31 16 17 18 17 36 2 17 -17 17 -18 -2 -31z m1416
22 c146 -86 84 -307 -86 -307 -75 0 -125 34 -155 105 -20 49 -19 82 6 134 42
87 149 118 235 68z m-213 -1566 c94 -48 64 -189 -40 -189 -96 1 -136 112 -62
174 33 28 67 33 102 15z"/>
<path fill="#EB6440" d="M455 1669 c-4 -12 -2 -26 4 -33 13 -12 391 -22 448 -11 33 6 46 25
37 50 -5 13 -42 15 -244 15 -234 0 -239 0 -245 -21z"/>
<path fill="#EB6440" d="M767 1483 c-4 -3 -7 -17 -7 -29 0 -33 18 -35 214 -32 142 3 170 6
179 19 6 9 7 24 4 33 -6 14 -30 16 -195 16 -104 0 -192 -3 -195 -7z"/>
<path fill="#497174"  d="M557 1222 c-15 -16 -17 -47 -17 -225 l0 -207 25 -16 c19 -13 46 -15
139 -12 127 3 149 12 194 78 26 39 30 106 7 150 -11 21 -12 36 -5 55 24 63 -6
138 -70 174 -32 18 -54 21 -147 21 -94 0 -112 -3 -126 -18z m213 -137 c0 -8
-9 -15 -20 -15 -11 0 -29 -9 -40 -20 -11 -11 -20 -29 -20 -40 0 -28 35 -60 64
-60 29 0 39 -12 30 -34 -5 -12 -20 -16 -60 -16 l-54 0 0 100 0 100 50 0 c38 0
50 -4 50 -15z"/>
<path fill="#497174" d="M972 1224 c-22 -15 -22 -20 -22 -223 0 -189 2 -209 18 -224 22 -20
71 -22 95 -4 13 9 17 33 19 114 l3 103 43 -56 c40 -51 45 -55 80 -52 31 3 42
11 77 57 l40 54 3 -104 c3 -115 10 -129 67 -129 62 0 65 13 65 243 l0 207 -25
16 c-17 11 -35 14 -58 10 -27 -5 -46 -22 -102 -96 -37 -50 -69 -90 -70 -90 -1
0 -33 40 -70 89 -78 103 -112 121 -163 85z"/>
<path fill="#EB6440" d="M157 914 c-4 -4 -7 -18 -7 -30 0 -30 23 -36 115 -32 l70 3 0 30 0 30
-85 3 c-47 1 -89 0 -93 -4z"/>
<path fill="#EB6440" d="M296 504 c-18 -17 -19 -24 -8 -42 7 -9 67 -12 268 -10 247 3 259 4
262 22 8 41 -18 46 -269 46 -203 0 -240 -2 -253 -16z"/>
<path fill="#EB6440" d="M460 335 c-6 -8 -9 -23 -5 -35 6 -20 11 -20 318 -18 l312 3 3 24 c2
13 -2 28 -10 32 -7 5 -146 9 -309 9 -247 0 -299 -2 -309 -15z"/>
</g>
</svg>
